<svg width="61" height="64" viewBox="0 0 61 64" fill="none" xmlns="http://www.w3.org/2000/svg">
<rect width="61" height="64" fill="white"/>
<path fill-rule="evenodd" clip-rule="evenodd" d="M47.43 32.715C47.43 41.9464 39.9464 49.43 30.715 49.43C21.4836 49.43 14 41.9464 14 32.715C14 23.4836 21.4836 16 30.715 16C39.9464 16 47.43 23.4836 47.43 32.715ZM42.2002 52.3167C38.8304 54.2954 34.9052 55.43 30.715 55.43C18.1699 55.43 8 45.2601 8 32.715C8 20.1699 18.1699 10 30.715 10C43.2601 10 53.43 20.1699 53.43 32.715C53.43 38.8938 50.963 44.4964 46.9603 48.5915L56.7061 58.3373C57.8777 59.5089 57.8777 61.4084 56.7061 62.5799C55.5345 63.7515 53.635 63.7515 52.4635 62.5799L42.2002 52.3167Z" fill="#2B2B45"/>
<path d="M0 0V-1H-1V0H0ZM61 0H62V-1H61V0ZM61 64V65H62V64H61ZM0 64H-1V65H0V64ZM0 1H61V-1H0V1ZM60 0V64H62V0H60ZM61 63H0V65H61V63ZM1 64V0H-1V64H1Z" fill="black"/>
</svg>
