<svg width="50" height="54" viewBox="0 0 50 54" fill="none" xmlns="http://www.w3.org/2000/svg">
<path fill-rule="evenodd" clip-rule="evenodd" d="M39.43 22.715C39.43 31.9464 31.9464 39.43 22.715 39.43C13.4836 39.43 6 31.9464 6 22.715C6 13.4836 13.4836 6 22.715 6C31.9464 6 39.43 13.4836 39.43 22.715ZM34.2002 42.3167C30.8304 44.2954 26.9052 45.43 22.715 45.43C10.1699 45.43 0 35.2601 0 22.715C0 10.1699 10.1699 0 22.715 0C35.2601 0 45.43 10.1699 45.43 22.715C45.43 28.8938 42.963 34.4964 38.9603 38.5915L48.7061 48.3373C49.8777 49.5089 49.8777 51.4084 48.7061 52.5799C47.5345 53.7515 45.635 53.7515 44.4635 52.5799L34.2002 42.3167Z" fill="#2B2B45"/>
</svg>
